<svg height="512" viewBox="0 0 512 512" width="512" xmlns="http://www.w3.org/2000/svg">
  <g>
    <g>
      <g>
        <path d="m465 488h-416v-336l208-128 208 128z" fill="#787680"/>
        <path d="m145 176h224v64h-224z" fill="#83d8f4"/>
        <path d="m137 304h240v184h-240z" fill="#3e3d42"/>
        <path d="m113 272h288v32h-288z" fill="#ff9811"/>
        <path d="m137 304h240v24h-240z" fill="#acabb1"/>
        <g fill="#a0815c">
          <path d="m289 424h64v64h-64z"/>
          <path d="m289 360h64v64h-64z"/>
          <path d="m225 424h64v64h-64z"/>
        </g>
      </g>
      <circle cx="409" cy="104" fill="#91cc04" r="88"/>
      <path d="m377 104h16v-56h32v56h16l-32 48z" fill="#d8d7da"/>
    </g>
    <g>
      <path d="m496 480h-24v-304.51a95.971 95.971 0 1 0 -147.54-118.75l-64.27-39.55a7.957 7.957 0 0 0 -8.38 0l-208 128a7.978 7.978 0 0 0 -3.81 6.81v328h-24a8 8 0 0 0 0 16h480a8 8 0 0 0 0-16zm-216 0h-48v-48h16v16a8 8 0 0 0 16 0v-16h16zm64 0h-48v-48h16v16a8 8 0 0 0 16 0v-16h16zm0-64h-48v-48h16v16a8 8 0 0 0 16 0v-16h16zm24 64h-8v-120a8 8 0 0 0 -8-8h-64a8 8 0 0 0 -8 8v56h-56a8 8 0 0 0 -8 8v56h-72v-144h224zm0-160h-224v-8h224zm-248-24v-16h272v16zm336 184h-72v-168h16a8 8 0 0 0 8-8v-32a8 8 0 0 0 -8-8h-288a8 8 0 0 0 -8 8v32a8 8 0 0 0 8 8h16v168h-72v-323.53l200-123.08 61.71 37.98a95.9 95.9 0 0 0 18.8 96.63h-192.51a8 8 0 0 0 -8 8v64a8 8 0 0 0 8 8h224a8 8 0 0 0 8-8v-45.49a95.89 95.89 0 0 0 80-7.4zm-101-296q2.445 1.635 5 3.11v44.89h-40v-48zm-51 0v48h-40v-48zm-56 0v48h-40v-48zm-56 0v48h-40v-48zm216 0a80 80 0 1 1 80-80 80.093 80.093 0 0 1 -80 80z"/>
      <path d="m401.344 156.438a8 8 0 0 0 13.312 0l32-48a8 8 0 0 0 -6.656-12.438h-8v-48a8 8 0 0 0 -8-8h-32a8 8 0 0 0 -8 8v48h-8a8 8 0 0 0 -6.656 12.438zm-9.344-44.438a8 8 0 0 0 8-8v-48h16v48a8 8 0 0 0 8 8h1.052l-17.052 25.578-17.052-25.578z"/>
    </g>
  </g>
</svg>
